<?xml version="1.0" standalone="no"?>
<!DOCTYPE svg PUBLIC "-//W3C//DTD SVG 20010904//EN"
 "http://www.w3.org/TR/2001/REC-SVG-20010904/DTD/svg10.dtd">
<svg version="1.0" xmlns="http://www.w3.org/2000/svg"
 width="166.000000pt" height="166.000000pt" viewBox="0 0 166.000000 166.000000"
 preserveAspectRatio="xMidYMid meet">
<metadata>
Created by potrace 1.11, written by Peter Selinger 2001-2013
</metadata>
<g transform="translate(0.000000,166.000000) scale(0.100000,-0.100000)"
fill="#000000" stroke="none">
<path d="M1430 1460 l0 -190 24 0 c24 0 24 2 28 101 3 92 5 103 27 120 31 25
66 24 85 -3 12 -17 16 -48 16 -120 l0 -98 26 0 26 0 -4 116 c-3 113 -4 116
-31 140 -34 29 -71 31 -114 4 l-33 -20 0 70 c0 68 -1 70 -25 70 l-25 0 0 -190z"/>
<path d="M1230 1580 c0 -29 -4 -40 -15 -40 -8 0 -15 -9 -15 -20 0 -11 7 -20
15 -20 12 0 15 -16 15 -85 0 -125 14 -145 103 -145 30 0 37 4 37 20 0 15 -7
20 -29 20 -58 0 -61 4 -61 101 l0 89 45 0 c38 0 45 3 45 20 0 17 -7 20 -45 20
l-45 0 0 40 c0 36 -2 40 -25 40 -22 0 -25 -4 -25 -40z"/>
<path d="M384 1561 c-204 -58 -331 -246 -373 -556 -10 -73 -7 -393 4 -455 65
-368 240 -546 530 -539 131 3 238 51 324 144 78 86 133 217 167 395 13 69 12
394 -1 475 -49 307 -168 479 -370 538 -69 20 -206 19 -281 -2z m249 -166 c92
-44 156 -157 186 -330 15 -87 18 -149 16 -295 -2 -102 -6 -198 -9 -215 -3 -16
-9 -46 -12 -65 -25 -149 -107 -272 -203 -305 -167 -57 -306 43 -364 260 -26
100 -29 123 -32 320 -2 152 1 212 16 300 32 183 99 296 201 337 51 21 149 18
201 -7z"/>
</g>
</svg>
